<svg width="20" height="20" viewBox="0 0 20 20" fill="none" xmlns="http://www.w3.org/2000/svg">
<g clip-path="url(#clip0_111_1336)">
<path d="M18.4375 4.84375H16.5625C16.4382 4.84375 16.319 4.89314 16.231 4.98104C16.1431 5.06895 16.0938 5.18818 16.0938 5.3125C16.0938 5.43682 16.1431 5.55605 16.231 5.64396C16.319 5.73186 16.4382 5.78125 16.5625 5.78125H18.4375C18.5618 5.78139 18.6809 5.83082 18.7688 5.91869C18.8567 6.00657 18.9061 6.12572 18.9062 6.25V16.25C18.9061 16.3743 18.8567 16.4934 18.7688 16.5813C18.6809 16.6692 18.5618 16.7186 18.4375 16.7188H1.5625C1.43822 16.7186 1.31907 16.6692 1.23119 16.5813C1.14332 16.4934 1.09389 16.3743 1.09375 16.25V6.25C1.09389 6.12572 1.14332 6.00657 1.23119 5.91869C1.31907 5.83082 1.43822 5.78139 1.5625 5.78125H3.4375C3.56182 5.78125 3.68105 5.73186 3.76896 5.64396C3.85686 5.55605 3.90625 5.43682 3.90625 5.3125C3.90625 5.18818 3.85686 5.06895 3.76896 4.98104C3.68105 4.89314 3.56182 4.84375 3.4375 4.84375H1.5625C1.18966 4.84416 0.832215 4.99244 0.56858 5.25608C0.304945 5.51971 0.156656 5.87716 0.15625 6.25V16.25C0.156656 16.6228 0.304945 16.9803 0.56858 17.2439C0.832215 17.5076 1.18966 17.6558 1.5625 17.6562H6.40625V18.9062H4.6875C4.56318 18.9062 4.44395 18.9556 4.35604 19.0435C4.26814 19.1315 4.21875 19.2507 4.21875 19.375C4.21875 19.4993 4.26814 19.6185 4.35604 19.7065C4.44395 19.7944 4.56318 19.8438 4.6875 19.8438H15.3125C15.4368 19.8438 15.556 19.7944 15.644 19.7065C15.7319 19.6185 15.7812 19.4993 15.7812 19.375C15.7812 19.2507 15.7319 19.1315 15.644 19.0435C15.556 18.9556 15.4368 18.9062 15.3125 18.9062H13.5938V17.6562H18.4375C18.8103 17.6558 19.1678 17.5076 19.4314 17.2439C19.6951 16.9803 19.8433 16.6228 19.8438 16.25V6.25C19.8433 5.87716 19.6951 5.51971 19.4314 5.25608C19.1678 4.99244 18.8103 4.84416 18.4375 4.84375V4.84375ZM12.6562 18.9062H7.34375V17.6562H12.6562V18.9062Z" fill="#034D82"/>
<path d="M3.79915 13.3344L4.42415 14.5844C4.45877 14.6535 4.50994 14.713 4.57309 14.7576C4.63624 14.8021 4.70943 14.8304 4.78614 14.8398C4.86285 14.8493 4.94071 14.8396 5.01279 14.8117C5.08487 14.7838 5.14894 14.7386 5.1993 14.6799L7.0743 12.4924C7.15513 12.3981 7.19517 12.2754 7.18563 12.1515C7.17609 12.0276 7.11774 11.9126 7.02342 11.8317C6.92909 11.7508 6.8065 11.7107 6.68259 11.7201C6.55868 11.7296 6.4436 11.7878 6.36263 11.8821L4.94707 13.5337L4.63778 12.9151C4.58205 12.8041 4.48455 12.7198 4.36669 12.6806C4.24883 12.6414 4.12024 12.6506 4.00915 12.7061C3.89806 12.7617 3.81355 12.859 3.77418 12.9768C3.73481 13.0946 3.74379 13.2232 3.79915 13.3344V13.3344Z" fill="#034D82"/>
<path d="M6.875 14.375C6.87501 14.4993 6.92439 14.6185 7.0123 14.7064C7.10021 14.7944 7.21943 14.8437 7.34375 14.8438H15.7812C15.9056 14.8438 16.0248 14.7944 16.1127 14.7065C16.2006 14.6185 16.25 14.4993 16.25 14.375C16.25 14.2507 16.2006 14.1315 16.1127 14.0435C16.0248 13.9556 15.9056 13.9062 15.7812 13.9062H7.34375C7.21943 13.9063 7.10021 13.9556 7.0123 14.0436C6.92439 14.1315 6.87501 14.2507 6.875 14.375V14.375Z" fill="#034D82"/>
<path d="M13.75 0.15625H6.25C5.87716 0.156656 5.51971 0.304945 5.25608 0.56858C4.99244 0.832215 4.84416 1.18966 4.84375 1.5625V9.0625C4.84416 9.43534 4.99244 9.79279 5.25608 10.0564C5.51971 10.3201 5.87716 10.4683 6.25 10.4688H13.75C14.1228 10.4683 14.4803 10.3201 14.7439 10.0564C15.0076 9.79279 15.1558 9.43534 15.1562 9.0625V1.5625C15.1558 1.18966 15.0076 0.832215 14.7439 0.56858C14.4803 0.304945 14.1228 0.156656 13.75 0.15625V0.15625ZM12.7451 8.07281H7.2551C7.13078 8.07281 7.01155 8.02343 6.92364 7.93552C6.83573 7.84761 6.78635 7.72838 6.78635 7.60406C6.78635 7.47974 6.83573 7.36051 6.92364 7.27261C7.01155 7.1847 7.13078 7.13531 7.2551 7.13531H12.7451C12.8694 7.13531 12.9886 7.1847 13.0765 7.27261C13.1644 7.36051 13.2138 7.47974 13.2138 7.60406C13.2138 7.72838 13.1644 7.84761 13.0765 7.93552C12.9886 8.02343 12.8694 8.07281 12.7451 8.07281ZM12.7451 5.78125H7.2551C7.13078 5.78125 7.01155 5.73186 6.92364 5.64396C6.83573 5.55605 6.78635 5.43682 6.78635 5.3125C6.78635 5.18818 6.83573 5.06895 6.92364 4.98104C7.01155 4.89314 7.13078 4.84375 7.2551 4.84375H12.7451C12.8694 4.84375 12.9886 4.89314 13.0765 4.98104C13.1644 5.06895 13.2138 5.18818 13.2138 5.3125C13.2138 5.43682 13.1644 5.55605 13.0765 5.64396C12.9886 5.73186 12.8694 5.78125 12.7451 5.78125ZM12.7451 3.48969H7.2551C7.13078 3.48969 7.01155 3.4403 6.92364 3.35239C6.83573 3.26449 6.78635 3.14526 6.78635 3.02094C6.78635 2.89662 6.83573 2.77739 6.92364 2.68948C7.01155 2.60157 7.13078 2.55219 7.2551 2.55219H12.7451C12.8694 2.55219 12.9886 2.60157 13.0765 2.68948C13.1644 2.77739 13.2138 2.89662 13.2138 3.02094C13.2138 3.14526 13.1644 3.26449 13.0765 3.35239C12.9886 3.4403 12.8694 3.48969 12.7451 3.48969V3.48969Z" fill="#EFA434"/>
</g>
<defs>
<clipPath id="clip0_111_1336">
<rect width="20" height="20" fill="white"/>
</clipPath>
</defs>
</svg>
